<svg width="38" height="41" viewBox="0 0 38 41" fill="none" xmlns="http://www.w3.org/2000/svg">
<path d="M33.7547 34.2134L24.1174 23.8152C25.6129 21.7292 26.4219 19.1787 26.4219 16.4961C26.4219 13.285 25.2604 10.274 23.16 8.00381C21.0596 5.73359 18.2615 4.48438 15.2891 4.48438C12.3166 4.48438 9.51855 5.7376 7.41816 8.00381C5.31406 10.27 4.15625 13.285 4.15625 16.4961C4.15625 19.7032 5.31777 22.7222 7.41816 24.9884C9.51855 27.2586 12.3129 28.5078 15.2891 28.5078C17.7754 28.5078 20.1355 27.635 22.0689 26.0254L31.7063 36.4195C31.7345 36.45 31.7681 36.4742 31.805 36.4908C31.8419 36.5073 31.8815 36.5158 31.9215 36.5158C31.9615 36.5158 32.001 36.5073 32.038 36.4908C32.0749 36.4742 32.1085 36.45 32.1367 36.4195L33.7547 34.6778C33.783 34.6473 33.8054 34.6111 33.8207 34.5713C33.836 34.5315 33.8439 34.4887 33.8439 34.4456C33.8439 34.4025 33.836 34.3598 33.8207 34.3199C33.8054 34.2801 33.783 34.2439 33.7547 34.2134ZM21.1672 22.8383C19.5938 24.5319 17.5082 25.4648 15.2891 25.4648C13.0699 25.4648 10.9844 24.5319 9.41094 22.8383C7.84121 21.1406 6.97656 18.8904 6.97656 16.4961C6.97656 14.1018 7.84121 11.8476 9.41094 10.1539C10.9844 8.46025 13.0699 7.52734 15.2891 7.52734C17.5082 7.52734 19.5975 8.45625 21.1672 10.1539C22.7369 11.8516 23.6016 14.1018 23.6016 16.4961C23.6016 18.8904 22.7369 21.1446 21.1672 22.8383Z" fill="black"/>
</svg>
