<svg width="54" height="50" viewBox="0 0 54 50" fill="#FFFFF" xmlns="http://www.w3.org/2000/svg">
<path d="M45.2725 37.2852C44.2777 35.1034 42.8341 33.1216 41.0221 31.4502C39.2156 29.774 37.0756 28.4375 34.7203 27.5146C34.6992 27.5049 34.6781 27.5 34.657 27.4902C37.9424 25.293 40.0781 21.7139 40.0781 17.6758C40.0781 10.9863 34.2246 5.56641 27 5.56641C19.7754 5.56641 13.9219 10.9863 13.9219 17.6758C13.9219 21.7139 16.0576 25.293 19.343 27.4951C19.3219 27.5049 19.3008 27.5098 19.2797 27.5195C16.9172 28.4424 14.7973 29.7656 12.9779 31.4551C11.1676 33.1278 9.72425 35.1092 8.72755 37.29C7.74839 39.4251 7.22031 41.7141 7.17188 44.0332C7.17048 44.0853 7.18035 44.1372 7.20092 44.1857C7.22149 44.2342 7.25234 44.2784 7.29166 44.3158C7.33097 44.3531 7.37796 44.3827 7.42984 44.403C7.48173 44.4232 7.53746 44.4336 7.59376 44.4336H10.7578C10.9899 44.4336 11.1744 44.2627 11.1797 44.0527C11.2852 40.2832 12.9199 36.7529 15.8098 34.0771C18.7998 31.3086 22.7707 29.7852 27 29.7852C31.2293 29.7852 35.2002 31.3086 38.1902 34.0771C41.0801 36.7529 42.7149 40.2832 42.8203 44.0527C42.8256 44.2676 43.0102 44.4336 43.2422 44.4336H46.4063C46.4626 44.4336 46.5183 44.4232 46.5702 44.403C46.6221 44.3827 46.669 44.3531 46.7084 44.3158C46.7477 44.2784 46.7785 44.2342 46.7991 44.1857C46.8197 44.1372 46.8295 44.0853 46.8281 44.0332C46.7754 41.6992 46.2533 39.4287 45.2725 37.2852ZM27 26.0742C24.5795 26.0742 22.3014 25.2002 20.5875 23.6133C18.8736 22.0264 17.9297 19.917 17.9297 17.6758C17.9297 15.4346 18.8736 13.3252 20.5875 11.7383C22.3014 10.1514 24.5795 9.27734 27 9.27734C29.4205 9.27734 31.6986 10.1514 33.4125 11.7383C35.1264 13.3252 36.0703 15.4346 36.0703 17.6758C36.0703 19.917 35.1264 22.0264 33.4125 23.6133C31.6986 25.2002 29.4205 26.0742 27 26.0742Z" fill="white"/>
</svg>
